<?xml version="1.0" standalone="no"?>
<!DOCTYPE svg PUBLIC "-//W3C//DTD SVG 20010904//EN"
 "http://www.w3.org/TR/2001/REC-SVG-20010904/DTD/svg10.dtd">
<svg version="1.0" xmlns="http://www.w3.org/2000/svg"
 width="2000.000000pt" height="2000.000000pt" viewBox="0 0 2000.000000 2000.000000"
 preserveAspectRatio="xMidYMid meet">

<g transform="translate(0.000000,2000.000000) scale(0.100000,-0.100000)"
fill="#000000" stroke="none">
<path d="M8410 19274 c-14 -2 -52 -9 -85 -15 -212 -36 -410 -149 -607 -345
-106 -106 -165 -179 -412 -509 -91 -121 -180 -238 -199 -259 l-34 -39 -94 22
c-93 21 -150 38 -483 140 -93 28 -237 66 -320 83 -139 29 -166 32 -341 32
-173 0 -199 -2 -285 -26 -189 -51 -348 -145 -492 -290 -279 -281 -423 -681
-490 -1358 -20 -207 -17 -888 5 -1105 51 -501 155 -1035 298 -1529 22 -76 37
-142 32 -146 -4 -3 -42 -19 -83 -35 -367 -137 -807 -429 -1115 -739 -404 -408
-572 -790 -551 -1261 22 -518 276 -954 731 -1257 151 -100 559 -288 625 -288
14 0 12 -20 -16 -135 -15 -66 -31 -376 -22 -450 3 -29 5 -28 52 42 63 95 127
153 216 198 39 20 69 31 65 26 -3 -6 -41 -64 -84 -129 -538 -811 -776 -1861
-645 -2847 15 -113 64 -388 69 -383 1 2 17 44 35 93 45 125 72 167 168 265
l84 85 -6 -50 c-28 -228 -32 -416 -16 -695 7 -132 15 -183 54 -345 26 -104 62
-239 81 -300 33 -106 184 -490 184 -470 0 6 -6 71 -14 145 -17 161 -19 265 -4
346 39 222 165 430 342 567 42 33 79 58 81 56 2 -2 -2 -35 -10 -74 -56 -289
-28 -658 71 -946 68 -193 197 -429 313 -567 l27 -33 0 163 c0 140 3 174 23
242 41 141 98 241 204 352 61 64 203 173 212 163 2 -2 -1 -38 -6 -79 -13 -98
-3 -283 21 -391 22 -98 69 -223 109 -291 l28 -47 69 80 c132 151 296 277 421
325 75 29 227 44 254 25 12 -8 15 -40 14 -173 0 -169 -11 -238 -55 -357 -11
-29 -17 -56 -14 -59 8 -8 199 27 295 55 47 13 121 39 165 57 l80 32 1 -185 c1
-306 45 -548 149 -826 74 -197 170 -371 309 -559 l81 -109 6 100 c6 100 30
191 69 263 12 23 20 30 23 20 2 -8 23 -82 46 -165 66 -232 163 -464 286 -681
213 -374 461 -674 787 -950 49 -42 91 -74 93 -72 2 2 -7 40 -21 83 -48 158
-52 282 -10 402 l12 36 43 -74 c113 -192 229 -315 536 -569 238 -196 383 -337
474 -459 70 -95 133 -218 155 -305 15 -56 28 -76 51 -76 23 0 36 20 50 76 26
99 99 233 189 345 105 131 183 205 443 420 303 251 436 393 538 575 l38 68 13
-37 c7 -20 18 -73 25 -116 13 -91 4 -163 -36 -289 -13 -42 -22 -78 -20 -80 8
-9 195 156 325 287 430 432 724 949 880 1551 l12 45 19 -35 c36 -67 61 -165
67 -265 l7 -99 66 89 c108 146 156 223 223 355 172 338 249 662 250 1051 l1
185 80 -32 c44 -18 118 -44 165 -57 96 -28 287 -63 295 -55 3 3 -3 30 -14 59
-44 118 -55 188 -55 357 0 132 3 165 14 173 27 18 179 4 252 -24 128 -49 283
-168 418 -321 l74 -85 28 47 c40 68 87 193 109 291 23 105 34 312 21 401 -5
36 -8 67 -6 69 8 8 121 -75 183 -133 117 -112 190 -232 233 -381 20 -68 23
-103 23 -242 0 -119 3 -159 11 -152 33 27 175 247 229 353 180 356 244 800
171 1181 -8 39 -12 72 -10 74 2 2 39 -23 81 -56 177 -137 303 -345 342 -567
14 -75 14 -179 1 -304 -22 -217 -26 -211 36 -62 159 385 237 692 265 1034 13
164 7 482 -11 605 -6 40 -9 75 -6 78 10 10 126 -110 170 -176 25 -36 59 -108
78 -159 38 -108 33 -114 72 101 144 793 45 1661 -274 2407 -116 270 -213 444
-413 742 l-19 28 38 -16 c102 -43 188 -119 258 -228 20 -32 39 -56 42 -53 2 2
5 77 5 165 1 359 -80 606 -373 1140 -159 290 -275 532 -338 701 -36 98 -37
111 -7 84 60 -56 228 -153 396 -229 l74 -34 -24 30 c-13 16 -50 60 -82 99
-164 197 -242 429 -254 752 -7 190 3 312 53 674 76 552 111 1021 100 1377 -3
119 -9 225 -12 235 -10 31 55 -48 98 -119 22 -37 64 -125 95 -195 l54 -128 -5
210 c-20 852 -329 1634 -892 2259 l-99 110 -6 -125 c-7 -133 -23 -192 -79
-297 -109 -204 -363 -443 -899 -845 l-185 -140 -36 44 c-132 162 -236 258
-395 364 -487 327 -1215 399 -2009 199 -76 -19 -142 -31 -146 -27 -4 4 -35 76
-70 158 -348 822 -796 1560 -1278 2105 -124 141 -450 459 -560 547 -346 279
-647 407 -977 418 -71 2 -141 2 -155 -1z m308 -130 c359 -64 720 -304 1164
-775 630 -669 1091 -1434 1582 -2628 26 -62 45 -119 42 -126 -13 -35 -682
-437 -1021 -615 -66 -34 -147 -77 -180 -95 -99 -54 -497 -241 -695 -327 -1275
-551 -2582 -880 -3945 -993 -201 -16 -517 -34 -524 -29 -7 6 -101 320 -101
340 0 11 -4 24 -9 30 -11 11 -108 371 -156 582 -75 328 -136 696 -171 1033
-21 210 -30 790 -15 1001 53 723 190 1150 461 1432 213 222 464 319 780 303
155 -9 304 -35 571 -102 434 -109 582 -135 780 -135 131 0 265 18 334 45 33
13 35 14 10 10 -136 -22 -240 -27 -340 -17 -59 6 -109 13 -112 16 -3 3 16 29
43 59 27 29 103 123 168 208 214 277 269 342 386 459 295 295 573 390 948 324z
m6725 -2681 c358 -472 591 -1067 656 -1672 6 -52 9 -96 8 -97 -1 -1 -60 76
-132 171 -71 96 -131 170 -133 165 -2 -4 4 -57 12 -117 61 -442 39 -1015 -69
-1782 -46 -325 -57 -464 -52 -661 6 -258 42 -429 123 -592 18 -38 30 -68 26
-68 -15 0 -110 69 -167 121 -32 30 -91 94 -132 142 -40 48 -73 85 -73 82 0
-21 55 -232 86 -326 72 -224 172 -440 382 -824 240 -438 337 -697 359 -952 l6
-77 -39 31 c-85 67 -202 119 -402 177 -61 18 -62 22 26 -89 218 -271 415 -618
553 -970 78 -198 116 -590 91 -925 l-7 -85 -27 46 c-26 44 -130 149 -148 149
-5 0 9 -40 30 -89 93 -214 124 -375 118 -608 -2 -90 -7 -165 -10 -169 -4 -3
-23 14 -44 38 -121 139 -240 226 -331 242 l-32 5 36 -47 c46 -60 103 -180 143
-302 50 -153 99 -420 106 -578 l6 -137 -37 65 c-113 197 -247 337 -419 435
l-48 28 62 -84 c138 -186 230 -442 230 -641 l0 -60 -38 34 c-69 63 -185 133
-252 153 l-25 7 21 -23 c35 -39 108 -157 157 -254 37 -75 107 -252 107 -273 0
-3 -26 35 -59 84 -73 110 -170 209 -276 279 -92 62 -220 123 -212 101 63 -164
104 -452 91 -641 l-7 -100 -27 86 c-43 139 -117 254 -224 349 -37 33 -39 34
-32 10 40 -143 57 -246 62 -380 l5 -145 -23 29 c-85 107 -128 152 -196 203
-103 78 -231 140 -346 167 l-28 7 27 -33 c151 -186 248 -346 326 -541 l19 -48
-83 84 c-45 46 -111 103 -146 127 -65 43 -229 125 -237 118 -2 -3 5 -45 16
-94 28 -129 35 -263 20 -380 -12 -102 -49 -244 -76 -296 l-15 -30 -99 96
c-230 223 -447 311 -659 265 l-50 -10 -8 -67 c-13 -107 -8 -339 9 -417 9 -38
14 -72 13 -73 -7 -7 -202 46 -280 77 -44 17 -116 51 -159 76 -44 25 -80 44
-82 42 -1 -1 2 -27 6 -58 59 -424 -33 -928 -241 -1317 -59 -111 -128 -222
-138 -222 -4 0 -13 22 -20 49 -22 85 -162 333 -179 316 -3 -3 -16 -56 -28
-118 -99 -489 -348 -1000 -687 -1407 -71 -85 -306 -330 -317 -330 -3 0 -4 18
-2 40 9 95 -32 266 -104 425 l-27 60 -27 -80 c-83 -244 -234 -433 -554 -696
-324 -265 -444 -383 -561 -553 -27 -40 -63 -100 -79 -134 l-30 -62 -40 77
c-114 217 -231 341 -656 694 -315 262 -436 415 -526 664 l-32 90 -27 -60 c-68
-153 -111 -327 -103 -421 2 -24 0 -44 -3 -44 -10 0 -243 243 -316 330 -337
403 -588 918 -687 1407 -12 62 -25 115 -28 118 -7 7 -95 -125 -134 -204 -18
-35 -39 -86 -45 -113 -7 -26 -16 -48 -20 -48 -10 0 -79 111 -138 222 -189 354
-282 799 -251 1195 6 86 14 162 17 169 7 20 5 19 -83 -31 -43 -25 -115 -59
-159 -76 -79 -31 -273 -84 -280 -77 -2 2 4 32 12 68 18 73 23 312 10 422 l-8
67 -50 10 c-112 24 -267 3 -373 -51 -85 -43 -194 -125 -288 -216 l-97 -94 -15
30 c-28 55 -64 198 -77 303 -13 119 -7 233 21 368 11 52 18 96 15 99 -2 2 -51
-18 -109 -46 -141 -70 -251 -158 -349 -282 l-27 -35 11 35 c23 70 139 302 192
382 29 46 81 117 115 158 34 41 60 76 58 77 -7 7 -144 -41 -206 -71 -139 -68
-280 -186 -340 -285 -14 -22 -28 -41 -32 -41 -12 0 -10 152 3 255 6 50 22 132
35 183 13 51 24 95 24 99 0 4 -30 -22 -66 -57 -81 -80 -148 -186 -184 -290
l-27 -79 -7 77 c-14 164 30 470 91 628 8 22 -120 -40 -212 -101 -132 -88 -218
-180 -305 -325 -28 -46 -50 -80 -50 -77 0 3 14 48 31 99 41 127 135 317 203
411 62 86 59 88 -39 39 -62 -31 -127 -75 -177 -120 l-38 -34 0 55 c0 126 54
337 121 469 29 58 96 161 150 232 l23 29 -25 -13 c-163 -86 -311 -231 -421
-413 l-50 -82 6 125 c19 361 114 707 241 874 28 36 33 47 19 43 -11 -3 -37
-10 -59 -16 -74 -19 -155 -83 -272 -214 -34 -37 -54 -53 -59 -45 -4 6 -9 77
-12 158 -7 226 33 427 123 618 31 64 39 89 27 83 -36 -19 -111 -93 -141 -137
-26 -40 -32 -44 -38 -28 -4 11 -8 129 -8 264 0 461 39 618 257 1054 115 230
243 433 393 621 96 122 95 117 33 99 -194 -56 -322 -113 -407 -182 l-34 -27 6
77 c6 67 41 256 50 264 1 2 36 -6 77 -17 203 -54 518 -102 747 -115 122 -7
123 -7 174 -45 73 -55 180 -105 283 -132 l90 -24 -40 -27 c-55 -37 -154 -66
-230 -66 -35 0 -64 -4 -64 -9 0 -5 20 -35 43 -68 109 -147 269 -235 469 -259
l57 -7 -70 -76 c-39 -42 -100 -120 -136 -173 -49 -73 -71 -98 -87 -98 -104 0
-780 -139 -763 -157 2 -2 58 10 123 26 172 43 566 111 644 111 4 0 -10 -41
-31 -90 -48 -112 -75 -207 -94 -330 -16 -101 -20 -316 -7 -324 4 -2 39 43 77
101 46 69 108 146 180 219 111 112 162 150 255 185 l50 19 -16 -37 c-48 -111
-59 -174 -58 -323 0 -115 4 -157 20 -204 l19 -59 42 65 c86 133 228 239 387
287 98 30 109 29 101 -11 -13 -59 -44 -117 -85 -161 -22 -24 -40 -48 -40 -52
0 -15 233 3 311 24 42 11 104 34 138 51 l61 31 -44 -89 c-63 -126 -162 -271
-189 -276 -12 -3 -80 -15 -152 -26 -243 -41 -552 -118 -770 -194 -124 -43
-116 -47 12 -6 126 40 378 103 538 134 153 29 346 58 351 53 9 -8 -216 -217
-293 -272 -45 -33 -81 -60 -80 -61 1 -1 43 2 92 7 276 27 540 118 758 261 42
28 77 52 77 55 0 5 -4 2 -75 -43 -180 -114 -456 -209 -668 -231 l-62 -6 65 49
c36 26 111 94 166 151 l102 103 118 12 c122 13 847 19 859 7 3 -4 -1 -38 -10
-75 -9 -38 -19 -121 -22 -185 l-6 -116 -121 -12 c-678 -67 -1364 -261 -2005
-567 -74 -35 -136 -62 -138 -60 -11 11 61 175 114 259 13 21 22 41 19 44 -8 9
-120 -28 -179 -60 -34 -17 -80 -54 -108 -86 l-49 -55 0 71 c0 132 44 230 167
370 l58 66 -101 -51 c-129 -66 -195 -89 -300 -103 -90 -12 -216 -1 -291 25
l-38 13 79 36 c155 72 320 202 416 327 23 30 5 15 -53 -42 -134 -132 -279
-221 -448 -274 -46 -14 -92 -29 -103 -33 -25 -9 94 -64 199 -91 112 -29 287
-26 388 6 17 5 17 4 1 -33 -52 -121 -59 -264 -19 -408 14 -50 25 -95 25 -101
0 -6 -48 -39 -107 -74 -125 -74 -400 -257 -409 -272 -4 -6 40 21 97 59 192
129 516 320 526 310 2 -2 -1 -35 -7 -73 -28 -197 8 -449 95 -656 21 -49 40
-88 44 -88 3 0 21 26 40 58 143 238 375 435 642 546 92 38 233 80 250 74 14
-5 -43 -111 -89 -167 -20 -24 -60 -62 -89 -85 -49 -38 -51 -41 -30 -49 12 -5
83 -10 157 -12 115 -3 123 -3 50 4 -47 4 -105 11 -129 16 l-43 7 38 32 c54 43
99 93 134 146 29 46 76 157 69 164 -2 3 -42 -2 -89 -10 -319 -54 -638 -240
-839 -490 -70 -87 -64 -90 -100 54 -44 171 -51 353 -20 521 l12 63 116 55
c630 297 1305 482 2005 548 178 17 185 16 186 -27 0 -34 53 -185 92 -263 29
-56 37 -80 28 -83 -45 -15 -305 -151 -396 -207 -384 -237 -721 -563 -947 -917
-34 -54 -7 -27 34 34 69 101 230 286 345 398 195 187 412 348 643 475 102 56
142 75 292 140 l77 33 32 -45 c18 -25 59 -73 91 -107 154 -165 307 -717 373
-1346 l6 -55 -39 80 c-21 44 -84 150 -141 235 -57 85 -121 191 -142 235 -21
44 -36 69 -32 55 17 -65 49 -134 109 -240 103 -180 161 -307 189 -410 14 -52
26 -102 26 -110 0 -8 -22 21 -48 65 -103 171 -228 330 -442 565 -78 85 -162
182 -187 215 -59 78 -120 203 -137 285 -8 36 -15 54 -15 40 -1 -40 27 -138 59
-207 41 -89 95 -164 236 -331 407 -478 560 -762 639 -1178 36 -187 69 -319
112 -439 128 -361 362 -635 643 -756 421 -182 1370 -186 1829 -9 239 92 458
314 596 603 76 158 119 296 165 529 49 250 95 397 169 553 99 207 245 417 471
680 173 200 239 299 281 424 30 87 21 94 -11 8 -41 -111 -117 -218 -286 -402
-216 -236 -330 -381 -448 -569 -31 -49 -56 -84 -56 -79 0 6 11 54 25 106 28
110 81 230 155 352 58 96 135 256 144 300 3 17 -12 -7 -33 -53 -22 -46 -86
-151 -142 -235 -56 -84 -119 -188 -141 -232 -29 -62 -37 -72 -33 -45 3 19 12
94 20 165 48 409 139 782 255 1046 31 69 56 109 99 155 32 33 71 80 87 102 16
23 36 42 44 42 24 0 266 -111 370 -169 135 -76 298 -185 420 -281 134 -106
363 -335 466 -466 43 -55 89 -114 102 -130 l24 -29 -18 30 c-35 61 -185 253
-277 356 -161 178 -393 371 -620 516 -85 54 -379 209 -426 224 -10 4 -5 22 23
77 45 90 71 159 90 241 8 34 17 65 19 67 7 8 332 -26 511 -52 546 -81 1128
-256 1636 -492 l145 -68 14 -59 c8 -36 14 -126 14 -225 1 -147 -1 -176 -25
-270 -15 -58 -31 -118 -37 -133 l-11 -28 -60 75 c-160 198 -391 357 -643 441
-96 32 -275 70 -285 61 -6 -7 17 -73 44 -127 31 -62 103 -149 153 -183 22 -16
39 -32 36 -36 -7 -11 -90 -31 -190 -45 l-90 -13 67 -1 c72 -1 194 19 248 41
l33 14 -51 36 c-28 21 -69 61 -92 89 -42 53 -90 139 -90 159 0 15 39 6 161
-35 286 -97 547 -296 699 -533 36 -56 68 -101 71 -102 13 0 81 175 105 267 42
167 54 327 34 478 -5 38 -7 71 -6 73 8 7 397 -221 504 -295 12 -8 22 -12 22
-9 0 8 -228 157 -337 221 -46 26 -83 53 -83 59 0 6 11 51 25 101 40 142 33
287 -18 408 -15 36 -15 38 1 33 93 -29 255 -34 370 -10 42 9 113 33 157 53
l80 38 -60 16 c-212 60 -367 150 -524 307 -57 56 -67 64 -41 30 110 -144 305
-287 485 -355 52 -20 -182 -61 -285 -50 -115 12 -190 34 -301 90 -60 30 -111
55 -115 55 -3 0 17 -26 45 -58 116 -135 161 -236 161 -364 l0 -70 -49 55 c-54
58 -134 106 -220 131 -30 9 -58 16 -63 16 -4 0 17 -46 46 -102 58 -110 92
-195 83 -204 -3 -3 -36 10 -73 29 -608 306 -1337 519 -2035 594 l-156 17 -6
120 c-3 67 -13 149 -22 184 -10 35 -14 66 -10 70 12 13 743 7 864 -6 l113 -13
102 -103 c55 -57 130 -125 166 -151 l65 -48 -62 6 c-218 22 -495 120 -682 241
-39 25 -71 43 -71 41 0 -11 181 -123 262 -163 167 -82 388 -143 579 -160 52
-5 95 -8 96 -8 1 1 -35 28 -80 61 -77 55 -302 264 -293 272 5 5 198 -24 351
-53 155 -30 456 -105 557 -140 39 -13 76 -24 82 -23 19 1 -153 58 -314 105
-166 48 -413 103 -575 129 -55 9 -110 18 -122 21 -27 5 -126 150 -189 276
l-44 89 61 -31 c34 -17 96 -40 138 -51 77 -20 311 -38 311 -24 0 4 -20 30 -45
57 -32 35 -51 69 -65 115 -11 37 -18 69 -15 72 11 11 141 -30 223 -70 99 -48
202 -141 265 -236 l42 -64 19 58 c16 46 20 87 20 203 1 148 -11 213 -58 322
l-16 37 30 -9 c126 -36 319 -210 449 -405 40 -60 78 -112 84 -114 15 -6 2 309
-17 394 -22 102 -53 197 -91 282 l-34 74 57 -6 c147 -17 333 -47 463 -75 78
-16 144 -28 146 -26 11 11 -396 93 -580 117 l-97 12 -64 96 c-35 53 -97 131
-136 174 l-72 77 34 0 c58 0 201 40 276 77 40 20 96 57 124 82 50 45 138 154
138 172 0 5 -29 9 -64 9 -76 0 -175 29 -230 66 l-40 27 89 24 c252 67 450 233
555 466 50 112 50 114 -12 73 -161 -109 -360 -103 -683 22 -244 94 -402 134
-519 130 -51 -1 -54 -2 -16 -5 139 -11 307 -58 503 -142 200 -85 300 -113 427
-119 85 -3 130 0 175 11 32 9 61 15 62 13 10 -9 -88 -133 -155 -198 -129 -123
-267 -187 -453 -211 l-100 -12 31 -40 c60 -77 167 -144 253 -160 20 -4 39 -11
42 -15 9 -14 -96 -99 -160 -130 -87 -42 -209 -68 -354 -77 l-124 -8 76 -58
c41 -32 104 -88 139 -125 61 -65 163 -200 156 -207 -1 -1 -55 1 -118 5 -155
12 -396 12 -554 0 -72 -5 -131 -8 -133 -6 -2 1 5 49 14 106 14 88 15 116 5
197 -10 79 -34 169 -66 253 -5 13 11 15 111 16 99 1 132 6 203 29 47 15 89 31
94 35 5 5 -18 16 -50 26 -179 51 -328 173 -410 336 -33 65 -30 72 16 48 53
-27 145 -50 195 -49 26 1 31 3 15 6 -97 16 -200 66 -272 132 l-56 51 13 -68
c15 -72 33 -130 60 -183 33 -66 126 -177 187 -224 35 -27 68 -53 73 -58 6 -6
-29 -7 -95 -4 -88 4 -118 10 -183 36 -43 17 -80 31 -82 31 -3 0 16 -34 42 -76
77 -127 133 -301 133 -410 l0 -35 -46 35 c-58 45 -114 71 -189 91 -97 25 -245
16 -267 -17 -11 -17 -1 -101 18 -146 8 -19 13 -37 11 -39 -6 -5 -108 32 -163
60 -28 14 -73 42 -100 63 -80 60 -82 59 -14 -6 98 -94 231 -160 353 -176 l52
-7 -42 45 c-40 44 -63 97 -63 145 0 31 35 38 126 25 88 -12 185 -55 244 -108
36 -33 120 -143 120 -158 0 -3 -19 -7 -42 -10 -470 -60 -794 -138 -1167 -282
l-115 -45 -40 39 c-92 88 -220 173 -311 206 -25 9 -71 44 -120 93 -121 120
-287 223 -422 263 -38 12 -42 16 -48 54 -10 62 -38 117 -78 157 l-36 36 56 7
c74 9 156 32 215 62 26 13 49 24 51 24 2 0 9 -19 16 -42 29 -99 86 -169 265
-327 61 -53 130 -123 154 -156 l45 -60 -7 40 c-16 84 -64 155 -195 284 -91 89
-112 114 -75 87 109 -77 235 -116 374 -116 254 0 408 107 535 373 78 163 171
248 410 373 72 37 146 78 165 91 l35 23 -35 -6 c-172 -31 -294 -77 -395 -149
l-75 -54 16 37 c37 90 128 214 181 249 13 9 65 22 116 29 114 17 170 35 269
86 180 93 343 304 462 598 31 76 31 77 -70 -69 -186 -268 -348 -407 -534 -456
-86 -23 -99 -20 -53 14 66 48 132 132 180 229 25 51 43 95 41 97 -2 3 -44 -39
-93 -92 -110 -118 -197 -191 -284 -236 l-66 -35 -235 -5 c-271 -5 -335 -17
-473 -89 -125 -65 -223 -145 -442 -358 -223 -218 -264 -251 -384 -309 -104
-50 -172 -64 -281 -59 -103 6 -192 42 -259 108 l-44 43 24 -43 c43 -76 141
-145 243 -171 43 -11 53 -20 125 -113 42 -55 80 -106 84 -112 4 -8 -31 -9
-121 -6 -107 4 -141 1 -212 -17 -164 -40 -328 -147 -411 -267 -22 -33 -8 -22
58 45 101 101 182 147 323 182 116 29 279 23 393 -15 143 -48 265 -121 377
-225 l45 -42 -80 6 c-158 12 -362 -33 -501 -110 -102 -57 -115 -77 -19 -30
343 170 729 105 993 -167 l43 -44 -88 -42 -88 -41 -80 39 c-199 98 -480 116
-703 44 -71 -23 -59 -29 18 -9 88 23 241 30 341 16 149 -22 376 -111 339 -133
-8 -5 -71 -40 -140 -79 -69 -39 -177 -106 -240 -148 -94 -62 -116 -81 -118
-103 -3 -22 2 -29 22 -34 21 -5 50 10 158 84 73 49 193 124 267 166 130 75
134 77 155 59 96 -79 175 -179 237 -298 57 -111 57 -111 -53 -119 -198 -15
-650 -90 -699 -117 -28 -15 -22 -63 8 -67 11 -2 93 13 181 33 174 38 432 81
554 91 l76 7 12 -39 c7 -22 14 -100 17 -175 l5 -136 -253 5 c-276 4 -572 -10
-595 -29 -18 -15 -18 -43 0 -58 11 -9 41 -10 128 -1 62 6 245 14 406 17 l292
6 0 -21 c0 -51 -109 -298 -140 -317 -5 -3 -52 7 -103 24 -189 60 -463 121
-548 121 -41 0 -60 -19 -51 -52 5 -21 3 -20 172 -43 173 -24 480 -99 480 -117
0 -17 -131 -145 -209 -204 -210 -158 -495 -262 -810 -293 -185 -19 -348 -14
-612 21 -219 29 -270 32 -499 32 -225 0 -277 -4 -445 -28 -597 -86 -1082 -4
-1435 245 -73 51 -240 209 -240 226 0 20 337 101 511 123 128 16 136 18 143
36 3 8 1 25 -5 36 -10 19 -17 20 -83 14 -102 -9 -289 -50 -446 -97 -74 -23
-144 -42 -154 -43 -35 -2 -131 188 -152 298 l-7 39 299 -6 c164 -4 348 -11
408 -17 80 -8 112 -7 122 1 18 15 18 43 0 58 -22 18 -304 33 -581 29 l-260 -3
-3 95 c-2 52 2 122 8 155 20 106 11 99 108 91 120 -10 357 -50 545 -92 88 -19
169 -34 180 -32 26 4 36 49 15 65 -30 24 -422 92 -658 114 -74 7 -138 15 -142
18 -4 3 13 47 37 96 49 99 149 231 218 288 l45 37 79 -44 c112 -62 201 -117
335 -208 130 -88 163 -96 163 -43 0 27 -11 37 -115 107 -63 42 -170 107 -238
145 -173 96 -163 86 -111 116 66 39 213 84 314 98 99 13 233 7 335 -15 80 -17
90 -13 18 9 -238 71 -499 55 -703 -44 l-80 -39 -82 38 c-46 21 -83 43 -83 48
0 5 31 39 70 75 255 241 630 293 955 132 95 -47 82 -29 -21 30 -137 77 -341
123 -499 110 l-80 -6 40 36 c216 193 417 275 648 262 183 -10 321 -69 451
-195 41 -40 60 -54 47 -35 -45 66 -154 154 -246 198 -126 61 -217 79 -371 73
-97 -4 -122 -2 -116 8 4 6 42 57 84 112 63 82 82 101 110 106 50 9 148 59 193
99 22 19 51 54 64 77 l24 43 -43 -42 c-68 -66 -158 -104 -260 -109 -106 -5
-176 9 -269 53 -120 58 -189 112 -381 300 -196 192 -260 248 -353 313 l-59 41
44 11 c24 6 73 20 109 31 36 10 77 19 90 19 67 -1 233 -100 304 -182 20 -24
69 -95 108 -158 120 -194 190 -245 332 -245 71 0 87 4 141 33 58 32 200 163
159 147 -11 -4 -40 -12 -63 -18 -108 -26 -274 39 -427 168 -170 144 -344 242
-467 264 l-43 7 105 33 c205 63 609 192 863 275 290 95 259 95 296 -5 35 -95
43 -151 42 -308 -1 -85 1 -153 3 -150 13 13 103 269 126 358 l27 104 25 -44
c146 -251 283 -628 368 -1012 12 -54 23 -97 25 -95 2 2 36 140 75 308 40 168
90 358 111 424 38 117 113 272 179 373 l35 53 16 -78 c14 -64 121 -377 133
-390 2 -2 6 79 8 180 4 164 7 190 30 253 84 233 218 402 501 632 73 58 185
160 250 225 64 65 123 118 131 118 22 0 31 -136 17 -254 -19 -168 -73 -300
-194 -480 l-40 -60 49 29 c105 60 187 117 236 163 92 86 176 223 208 342 l13
45 23 -62 c29 -76 42 -179 34 -261 -3 -34 -4 -62 -2 -62 21 0 154 84 202 127
112 102 153 170 271 451 38 91 88 197 111 236 38 66 182 225 193 214 3 -3 -2
-25 -10 -49 -56 -157 -65 -436 -19 -592 4 -13 18 7 48 67 82 163 185 268 346
351 134 69 220 90 375 90 72 0 143 -4 159 -8 l29 -8 -24 -16 c-121 -81 -192
-161 -255 -285 -44 -86 -44 -102 0 -22 75 140 161 227 288 294 l72 38 -45 12
c-24 6 -51 13 -61 16 -99 29 -314 20 -436 -18 -172 -53 -349 -174 -435 -297
-9 -14 -20 -22 -23 -18 -11 11 14 227 35 300 23 80 58 158 106 237 19 32 35
60 35 63 0 11 -105 -24 -176 -58 -169 -82 -261 -208 -407 -557 -41 -98 -90
-203 -108 -233 -38 -62 -154 -185 -176 -185 -8 0 -13 13 -13 38 0 50 -34 171
-66 235 -15 29 -52 93 -83 142 l-56 90 -6 -130 c-6 -141 -25 -215 -79 -310
-34 -58 -95 -131 -85 -100 37 111 47 178 49 310 0 77 -2 159 -7 182 l-7 42
102 57 c395 221 792 492 1113 760 245 205 514 483 660 684 31 42 40 50 43 35
9 -66 38 -169 63 -224 70 -155 53 -312 -56 -518 -24 -46 -41 -83 -37 -83 4 0
41 9 82 21 108 29 226 90 292 148 l56 51 35 -42 c94 -117 186 -291 241 -459
56 -170 68 -252 75 -484 l6 -210 52 120 c101 234 130 384 120 623 -6 153 -33
300 -76 412 -12 30 -21 58 -21 62 0 4 36 -10 80 -31 96 -47 196 -66 295 -57
65 6 243 48 273 65 8 4 -22 19 -73 36 -47 15 -113 44 -147 64 -83 49 -186 162
-231 253 -37 76 -71 184 -61 199 3 5 29 9 57 9 160 1 396 115 499 242 41 51
98 134 98 143 0 3 -9 4 -19 0 -10 -3 -48 -6 -84 -6 -50 -1 -76 5 -115 25 -47
24 -113 89 -112 111 1 5 26 28 57 50 133 96 244 259 300 442 23 78 26 105 27
243 1 163 -6 208 -52 333 l-24 67 -49 -74 c-41 -62 -136 -162 -146 -152 -2 1
8 50 21 108 39 173 49 305 43 546 -6 185 -12 245 -41 407 -19 105 -34 184 -35
176 -13 -165 -38 -356 -57 -429 -43 -173 -153 -369 -309 -552 -40 -47 -153
-164 -251 -260 -99 -96 -225 -222 -281 -280 l-103 -105 0 135 c0 146 -18 289
-51 413 -12 43 -20 79 -18 81 2 2 72 57 154 121 382 300 563 497 695 755 102
202 157 392 166 580 3 58 8 116 11 130 5 25 5 25 39 -15 19 -22 76 -95 127
-162z m-2679 -419 c312 -38 571 -131 799 -286 127 -87 305 -267 390 -393 112
-170 187 -347 224 -533 27 -132 24 -405 -5 -537 -33 -154 -77 -276 -156 -440
-203 -419 -561 -818 -1106 -1232 -676 -514 -1484 -927 -2590 -1326 -258 -93
-1009 -342 -1409 -468 -944 -297 -1676 -452 -2451 -521 -231 -21 -944 -17
-1150 5 -759 83 -1294 301 -1646 670 -430 450 -517 1139 -210 1661 251 426
830 900 1366 1119 142 58 120 72 184 -120 191 -583 570 -1558 614 -1580 28
-13 857 -16 1097 -3 1758 91 3212 592 4670 1608 243 170 668 500 685 533 24
45 -334 1133 -548 1666 -12 29 -18 54 -14 57 14 9 246 64 352 85 113 21 342
49 455 54 112 6 320 -3 449 -19z m-1385 -1053 c-52 -63 -204 -196 -322 -283
-240 -177 -569 -336 -833 -403 -54 -13 -100 -23 -102 -21 -4 4 170 110 373
226 61 35 245 142 410 238 286 167 506 292 513 292 2 0 -16 -22 -39 -49z
m-2219 -1712 c-61 -42 -278 -138 -435 -192 -319 -111 -731 -188 -990 -186
l-100 0 40 15 c205 78 1351 366 1475 372 20 1 22 0 10 -9z m-451 -494 c-12
-11 -252 -98 -371 -134 -388 -117 -799 -191 -1233 -222 -198 -14 -672 -7 -701
9 -16 10 -17 11 -2 12 30 0 800 100 1048 136 192 27 881 141 1180 194 55 9 85
12 79 5z m2951 -1069 c0 -2 -64 -57 -142 -122 -319 -265 -452 -425 -534 -641
-17 -46 -34 -80 -37 -76 -9 8 -8 174 2 240 4 29 4 50 -1 47 -4 -3 -48 -58 -97
-124 -198 -263 -279 -444 -367 -822 l-28 -118 -66 203 c-102 306 -188 496
-307 675 -30 46 -53 85 -52 86 8 6 344 123 347 120 2 -1 18 -55 36 -120 38
-136 29 -143 82 65 18 73 34 115 44 119 178 60 716 283 955 395 178 84 165 78
165 73z m-1710 -793 c-7 -65 -5 -67 -49 48 l-18 47 31 9 c29 8 31 7 37 -19 4
-15 3 -54 -1 -85z m2947 -575 c-10 -196 -67 -327 -178 -408 -95 -68 -236 -94
-364 -67 -74 16 -186 61 -184 74 0 4 36 38 79 75 l78 68 38 -16 c26 -11 59
-15 106 -12 82 4 137 38 183 113 27 43 30 57 30 126 l-1 77 56 27 c43 20 109
43 159 54 2 1 1 -50 -2 -111z m-4755 60 l67 -31 -6 -57 c-7 -67 6 -112 47
-169 58 -79 185 -114 276 -76 l36 15 78 -68 c43 -37 79 -71 79 -75 1 -12 -103
-56 -173 -72 -163 -39 -337 10 -435 121 -74 85 -108 180 -118 337 -8 133 5
140 149 75z m-488 -127 c20 -38 36 -72 36 -75 0 -4 -16 5 -35 20 -20 15 -68
44 -107 64 l-72 38 45 10 c90 20 93 19 133 -57z m-221 -17 c111 -56 200 -117
264 -181 47 -47 65 -76 96 -150 120 -289 295 -412 572 -401 185 8 310 64 450
202 44 44 75 73 69 65 -55 -73 -101 -121 -190 -200 -149 -131 -234 -252 -234
-333 0 -19 1 -19 16 4 28 42 103 117 221 221 119 105 207 219 219 284 3 19 10
35 14 35 4 0 32 -11 61 -24 58 -25 180 -56 226 -56 l28 0 -21 -18 c-42 -34
-83 -104 -95 -162 l-11 -57 -57 -18 c-131 -41 -284 -138 -411 -260 -52 -51
-99 -87 -121 -94 -74 -24 -215 -118 -305 -203 l-41 -39 -99 39 c-342 136 -751
237 -1139 282 -219 25 -582 35 -765 22 -74 -6 -136 -9 -138 -7 -1 1 16 30 38
63 57 85 166 199 257 268 l76 59 -122 7 c-143 9 -268 36 -356 78 -64 30 -169
116 -160 130 2 4 20 10 39 13 81 13 193 84 254 160 l33 42 -96 12 c-110 14
-204 42 -290 87 l-59 31 349 6 c340 7 559 21 833 55 73 9 135 14 138 11 14
-13 -57 -118 -126 -187 -86 -87 -155 -129 -272 -169 l-83 -28 100 -33 c86 -28
115 -33 208 -34 91 -1 106 -3 101 -16 -48 -117 -74 -241 -73 -343 0 -74 19
-194 30 -199 4 -2 27 24 52 58 54 74 115 125 188 158 60 28 163 46 222 38 37
-4 37 -5 31 -41 -10 -57 -29 -96 -69 -140 l-37 -41 33 6 c169 30 305 100 408
208 47 48 30 46 -27 -4 -50 -44 -159 -102 -235 -124 -45 -13 -48 -13 -41 2 22
50 37 136 28 160 -11 32 -37 39 -150 41 -120 2 -238 -39 -320 -111 l-37 -33 6
75 c11 132 62 273 143 402 13 21 24 39 24 41 0 3 -40 -11 -89 -29 -93 -35
-226 -54 -269 -37 -22 8 -20 11 33 48 87 59 161 148 212 252 l44 92 47 7 c26
4 92 15 147 24 140 25 147 24 228 -16z m-778 -1074 c366 -27 722 -96 1065
-206 140 -45 381 -135 409 -153 11 -7 7 -18 -18 -55 -91 -132 -135 -274 -129
-417 l4 -96 -291 -6 c-159 -3 -359 -13 -444 -22 -84 -8 -155 -14 -157 -12 -2
2 21 41 52 87 57 86 129 222 164 310 11 28 29 73 40 101 l20 50 -77 -68 c-43
-38 -94 -78 -113 -90 -53 -32 -177 -71 -254 -79 l-68 -7 18 34 c25 49 44 127
44 183 l0 48 -57 -6 c-175 -21 -372 -113 -477 -225 -17 -17 -34 -31 -39 -31
-14 0 -1 171 18 245 19 73 63 169 105 230 l31 45 -38 0 c-79 0 -170 -22 -248
-60 -77 -37 -209 -138 -253 -195 -35 -44 -93 -107 -96 -103 -6 7 25 166 45
233 11 39 41 114 66 167 l46 97 56 4 c128 8 446 6 576 -3z m8132 4 l82 -7 35
-73 c50 -101 93 -234 109 -337 8 -48 11 -87 8 -86 -3 0 -31 30 -61 66 -157
188 -347 293 -533 293 l-38 0 31 -45 c42 -61 86 -157 105 -230 19 -74 32 -245
18 -245 -5 0 -22 14 -39 31 -106 112 -302 204 -478 225 l-59 7 5 -69 c3 -40
16 -95 30 -131 l26 -63 -38 0 c-53 0 -180 34 -246 67 -31 15 -94 60 -140 101
l-84 74 20 -51 c11 -28 29 -73 40 -101 35 -88 107 -224 164 -310 31 -46 55
-85 53 -87 -2 -2 -73 4 -158 12 -85 9 -285 18 -444 22 l-291 6 4 96 c6 143
-37 283 -129 419 -24 35 -27 47 -17 53 27 18 271 109 408 153 341 110 744 186
1105 209 99 7 432 7 512 1z m-6476 -570 c-47 -45 -106 -114 -131 -152 -25 -39
-49 -71 -53 -71 -11 -1 0 88 20 158 14 52 59 150 90 198 l15 22 73 -36 73 -36
-87 -83z m4384 55 c18 -36 40 -90 48 -120 20 -70 31 -159 20 -158 -4 0 -28 32
-53 71 -25 38 -84 107 -131 152 l-87 83 72 36 c82 41 76 44 131 -64z m-7036
-1450 l-36 -111 -52 -30 c-28 -16 -51 -27 -51 -25 0 17 63 156 86 189 22 31
78 88 88 88 1 0 -15 -50 -35 -111z m9604 49 c19 -24 42 -57 50 -74 15 -28 57
-135 57 -142 0 -2 -23 10 -51 26 l-52 30 -36 110 c-40 121 -34 131 32 50z
m-6164 -522 c78 -20 246 -43 374 -52 94 -6 108 -9 104 -23 -3 -9 -20 -56 -37
-105 -76 -217 -105 -421 -98 -697 5 -162 3 -199 -8 -199 -22 0 -122 110 -181
198 -127 191 -208 470 -238 820 -7 83 -9 81 84 58z m2781 7 c0 -5 -5 -59 -10
-121 -20 -229 -88 -499 -160 -643 -63 -124 -191 -288 -246 -317 l-22 -11 5
212 c4 166 2 238 -11 331 -20 137 -64 317 -101 407 -14 34 -25 65 -25 69 0 4
69 12 153 19 83 6 204 22 267 35 130 27 150 29 150 19z m-620 -378 c0 -105
-31 -278 -72 -403 l-20 -63 -23 21 c-70 66 -140 288 -120 380 6 28 9 30 53 30
31 0 67 10 107 29 75 37 75 37 75 6z m-1545 -16 c28 -10 71 -18 96 -19 40 0
48 -3 53 -22 24 -90 -46 -320 -118 -387 l-24 -23 -26 80 c-29 93 -52 214 -62
326 -6 75 -6 79 12 71 11 -4 42 -16 69 -26z m422 -92 c-6 -69 -47 -191 -71
-215 -14 -14 -18 -10 -41 43 -23 52 -38 101 -59 197 l-6 27 87 4 c49 1 90 4
92 5 2 1 1 -26 -2 -61z m787 20 c-10 -58 -35 -138 -60 -195 -22 -50 -26 -54
-40 -40 -24 24 -65 145 -71 213 l-5 60 90 -3 91 -3 -5 -32z m-536 -37 c-14
-50 -60 -132 -70 -122 -10 10 -48 121 -48 141 0 13 12 16 64 16 l63 0 -9 -35z
m232 19 c0 -20 -38 -131 -48 -141 -10 -10 -56 72 -70 122 l-9 35 63 0 c52 0
64 -3 64 -16z m-1076 -238 c14 -155 101 -371 220 -551 35 -52 114 -157 176
-233 61 -77 109 -141 107 -143 -8 -9 -93 34 -139 69 l-48 37 19 -51 c21 -54
58 -108 106 -151 35 -33 24 -35 -40 -8 -57 24 -118 66 -167 114 -43 42 -44 42
-22 -10 44 -105 133 -211 238 -285 78 -55 75 -60 -18 -25 -88 33 -164 84 -233
155 -73 75 -118 150 -153 254 l-28 82 -7 -68 c-8 -75 0 -160 21 -219 8 -22 14
-42 14 -43 0 -7 -137 89 -163 113 -53 50 -85 139 -102 287 -9 77 -28 113 -69
130 -69 29 -156 -26 -242 -155 l-44 -65 0 145 c0 80 -3 163 -6 185 l-5 40 56
-60 56 -60 -29 70 c-31 76 -56 170 -67 250 -8 56 -6 55 48 -26 71 -107 75
-105 55 29 -9 64 -17 139 -17 166 l-1 50 46 -95 c55 -114 116 -202 202 -291
89 -93 142 -107 199 -55 22 20 23 21 16 254 -4 155 -3 233 4 233 6 0 13 -31
17 -69z m2295 -56 c-5 -60 -13 -134 -19 -164 -19 -103 -13 -103 60 1 37 52 50
65 50 49 0 -48 -33 -180 -65 -261 l-34 -85 52 58 52 59 0 -196 c0 -108 -1
-196 -2 -196 -1 0 -16 26 -34 58 -47 81 -144 178 -193 191 -50 13 -99 -6 -120
-47 -8 -16 -20 -66 -25 -111 -23 -183 -56 -244 -169 -317 -29 -19 -54 -34 -56
-34 -2 0 3 23 10 52 15 55 17 186 5 228 -7 22 -8 20 -15 -19 -12 -63 -87 -207
-141 -269 -53 -60 -151 -132 -219 -163 -45 -20 -136 -50 -136 -44 0 1 26 18
58 38 81 50 189 167 235 253 20 40 37 75 37 79 0 3 -24 -14 -52 -40 -51 -44
-176 -115 -204 -115 -7 0 6 20 31 44 41 42 83 110 100 166 7 23 6 23 -31 -9
-38 -34 -141 -87 -150 -78 -3 2 28 44 69 93 241 291 352 482 413 709 l25 90
-6 -176 c-5 -166 -4 -177 15 -202 48 -61 114 -42 211 59 82 86 151 190 209
316 24 54 45 96 46 95 1 -1 -2 -51 -7 -112z m-2604 -577 c2 -7 11 -60 20 -118
11 -78 24 -123 49 -175 40 -82 54 -96 166 -173 59 -40 90 -69 104 -96 26 -52
32 -132 13 -176 -23 -56 -93 -127 -155 -157 -74 -37 -171 -38 -249 -4 -68 30
-145 112 -186 198 -28 60 -32 80 -35 174 -5 124 15 214 76 337 59 122 180 238
197 190z m2517 -45 c188 -199 237 -528 107 -718 -73 -108 -161 -158 -274 -159
-91 -1 -149 25 -220 100 -62 64 -79 106 -73 174 8 81 35 118 134 186 143 98
191 180 214 370 6 48 13 91 16 96 13 20 45 4 96 -49z m-2564 -981 c274 -235
520 -344 864 -381 123 -14 664 -14 783 -1 348 39 591 146 867 382 138 119 178
150 178 141 0 -20 -108 -195 -167 -271 -244 -313 -580 -426 -1268 -426 -445
-1 -731 46 -945 154 -169 85 -322 240 -439 445 -28 49 -51 93 -51 98 0 9 42
-24 178 -141z m562 71 c14 -65 9 -133 -14 -213 -27 -92 -20 -91 -150 -26 -64
32 -116 63 -116 70 0 33 220 226 257 226 6 0 17 -26 23 -57z m1491 10 c72 -53
179 -160 179 -180 0 -11 -211 -123 -232 -123 -4 0 -18 33 -30 73 -35 110 -28
277 11 277 5 0 37 -21 72 -47z m-1216 -185 c20 -68 32 -198 18 -198 -24 0
-179 32 -185 38 -3 4 3 30 13 59 20 51 104 153 127 153 6 0 18 -24 27 -52z
m924 6 c40 -46 77 -111 83 -149 3 -20 -33 -32 -148 -50 l-47 -7 6 74 c8 91 33
178 52 178 7 0 31 -21 54 -46z m-610 -68 c18 -30 39 -75 46 -100 l14 -46 -94
0 c-77 0 -95 3 -95 15 0 36 72 185 90 185 3 0 21 -24 39 -54z m299 -17 c17
-35 35 -79 38 -96 l7 -33 -96 0 -96 0 9 28 c23 78 77 174 95 169 6 -2 25 -32
43 -68z"/>
<path d="M8352 18850 c-79 -21 -189 -75 -237 -117 -21 -17 -24 -23 -10 -18
183 68 308 84 466 62 185 -27 332 -82 487 -183 144 -94 207 -148 450 -388 127
-127 232 -226 232 -221 0 11 -79 140 -139 225 -181 261 -416 475 -624 570
-139 63 -228 82 -397 86 -131 3 -166 1 -228 -16z"/>
<path d="M8480 18489 c-67 -13 -155 -51 -138 -59 7 -4 50 -10 95 -14 197 -16
399 -96 571 -226 103 -78 111 -75 60 24 -106 199 -362 319 -588 275z"/>
<path d="M5146 16343 c-36 -243 -40 -305 -40 -598 0 -322 12 -473 60 -753 50
-296 144 -625 248 -867 48 -112 82 -179 72 -140 -19 72 -111 493 -136 623
-105 551 -169 1183 -170 1677 0 77 -4 146 -9 153 -5 9 -14 -26 -25 -95z"/>
<path d="M14238 10683 c6 -2 18 -2 25 0 6 3 1 5 -13 5 -14 0 -19 -2 -12 -5z"/>
<path d="M12235 10576 c-130 -41 -240 -108 -420 -255 -189 -155 -346 -203
-479 -146 -36 16 35 -65 98 -112 145 -107 309 -93 429 36 24 25 75 98 115 162
104 169 203 255 355 310 l52 18 -55 0 c-30 0 -73 -6 -95 -13z"/>
<path d="M9910 9923 c0 -43 29 -119 67 -174 39 -56 81 -99 216 -223 123 -112
160 -167 181 -271 49 -232 68 -322 73 -340 4 -11 17 49 30 135 28 191 61 301
108 363 20 26 84 90 143 143 170 152 238 247 248 346 l5 43 -21 -50 c-32 -81
-101 -157 -237 -263 -156 -121 -216 -184 -252 -264 -27 -59 -28 -60 -35 -32
-18 72 -110 176 -246 279 -166 125 -229 195 -262 289 -16 47 -17 48 -18 19z"/>
<path d="M15648 9063 c7 -3 16 -2 19 1 4 3 -2 6 -13 5 -11 0 -14 -3 -6 -6z"/>
<path d="M15695 9050 c11 -5 27 -9 35 -9 9 0 8 4 -5 9 -11 5 -27 9 -35 9 -9 0
-8 -4 5 -9z"/>
<path d="M15765 9030 c11 -5 27 -9 35 -9 9 0 8 4 -5 9 -11 5 -27 9 -35 9 -9 0
-8 -4 5 -9z"/>
<path d="M9235 8435 c101 -88 291 -151 485 -163 l105 -7 -59 -23 c-79 -30
-188 -104 -231 -156 -19 -23 -47 -69 -62 -102 -25 -53 -28 -70 -28 -164 0 -93
3 -112 26 -161 31 -65 94 -139 118 -139 32 0 40 20 34 90 -5 61 -3 72 23 119
68 127 225 177 351 113 90 -46 152 -154 134 -232 -30 -133 -140 -191 -273
-143 -39 14 -49 14 -62 4 -25 -21 -19 -44 32 -122 86 -132 187 -207 332 -246
53 -15 105 -18 285 -18 180 0 232 3 285 18 147 40 243 112 332 246 51 78 57
101 32 122 -13 10 -23 10 -62 -4 -133 -48 -243 10 -273 143 -18 78 44 186 133
231 126 64 284 14 352 -111 26 -48 28 -59 23 -120 -6 -70 2 -90 34 -90 27 0
76 57 112 130 30 60 32 71 32 170 0 94 -3 111 -28 164 -15 33 -43 79 -62 102
-43 52 -152 126 -231 156 l-59 23 120 6 c230 12 387 66 525 178 32 26 18 26
-54 1 -132 -45 -204 -52 -611 -60 -338 -7 -403 -11 -485 -29 l-95 -20 -95 20
c-82 18 -149 22 -490 29 -347 7 -407 11 -494 30 -55 11 -115 28 -134 36 -55
22 -60 16 -17 -21z"/>
<path d="M8721 7254 c49 -51 183 -138 268 -174 144 -62 328 -92 457 -75 72 9
64 13 -96 50 -157 37 -379 112 -530 179 -69 31 -127 56 -129 56 -3 0 11 -16
30 -36z"/>
<path d="M12125 7228 c-170 -73 -328 -127 -495 -168 -69 -17 -136 -33 -150
-37 l-25 -6 30 -7 c17 -4 60 -8 97 -9 225 -4 478 90 637 236 31 29 54 52 51
52 -3 0 -68 -27 -145 -61z"/>
<path d="M13052 6775 c0 -16 2 -22 5 -12 2 9 2 23 0 30 -3 6 -5 -1 -5 -18z"/>
<path d="M15840 6756 c0 -2 14 -14 30 -26 17 -12 30 -19 30 -16 0 2 -13 14
-30 26 -16 12 -30 19 -30 16z"/>
<path d="M4959 6693 c-13 -16 -12 -17 4 -4 9 7 17 15 17 17 0 8 -8 3 -21 -13z"/>
<path d="M14058 6613 c7 -3 16 -2 19 1 4 3 -2 6 -13 5 -11 0 -14 -3 -6 -6z"/>
<path d="M7618 6363 c6 -2 18 -2 25 0 6 3 1 5 -13 5 -14 0 -19 -2 -12 -5z"/>
<path d="M13248 6363 c6 -2 18 -2 25 0 6 3 1 5 -13 5 -14 0 -19 -2 -12 -5z"/>
<path d="M7539 6345 c-52 -19 -114 -62 -142 -99 -27 -34 -77 -130 -77 -145 0
-6 34 -8 88 -4 232 14 450 -106 555 -304 47 -90 47 -97 1 -88 -77 14 -182 61
-280 126 l-103 68 34 -74 c80 -177 156 -246 415 -375 135 -68 244 -134 274
-168 l19 -22 -99 0 c-119 -1 -158 -9 -294 -63 l-105 -42 65 -8 c189 -22 244
-44 345 -139 117 -109 172 -210 270 -499 118 -345 196 -481 390 -674 216 -217
452 -350 752 -426 204 -51 290 -57 833 -58 758 0 842 17 1167 238 354 240 519
407 629 636 23 50 73 178 109 285 89 258 147 372 244 472 108 114 165 139 376
165 l60 8 -105 42 c-136 54 -175 62 -294 63 l-99 0 19 22 c31 34 140 101 284
173 249 124 332 202 414 387 l25 57 -102 -68 c-99 -65 -204 -112 -281 -126
-46 -9 -46 -2 -1 84 68 129 195 235 336 282 62 20 93 24 195 24 l121 0 -18 43
c-44 102 -117 175 -210 207 -70 25 -67 17 7 -19 75 -36 130 -91 159 -159 8
-20 15 -38 15 -39 0 -2 -57 -3 -128 -3 -111 0 -136 -4 -199 -26 -187 -68 -342
-230 -398 -416 -25 -80 -24 -81 48 -72 55 8 112 19 172 35 41 11 -75 -60 -210
-128 -172 -87 -261 -145 -316 -206 -43 -49 -124 -205 -109 -210 5 -2 30 8 57
22 79 39 154 57 230 54 l68 -3 -50 -29 c-111 -65 -221 -198 -291 -352 -18 -40
-63 -159 -99 -266 -37 -106 -86 -232 -109 -280 -106 -212 -278 -380 -635 -618
-170 -113 -255 -147 -451 -182 -70 -12 -448 -18 -620 -10 -36 2 -157 0 -270
-4 -226 -7 -359 6 -540 51 -440 110 -804 391 -983 758 -25 50 -75 180 -112
287 -72 211 -113 306 -167 391 -52 82 -143 175 -211 217 l-61 37 68 3 c75 3
151 -15 229 -54 27 -14 52 -24 57 -22 11 4 -25 90 -66 155 -52 82 -146 151
-343 252 -173 89 -277 152 -221 136 14 -5 70 -16 125 -25 116 -20 116 -19 90
63 -64 195 -209 347 -398 416 -63 22 -88 26 -199 26 -146 0 -143 -3 -86 88 36
56 72 86 148 121 58 27 51 34 -11 11z"/>
<path d="M9820 2848 c0 -79 22 -173 55 -238 14 -27 25 -52 25 -55 0 -10 -125
57 -205 110 -44 29 -113 84 -152 122 -73 68 -73 68 -73 38 0 -49 38 -174 77
-252 56 -112 145 -222 351 -435 105 -108 215 -229 244 -269 109 -148 191 -304
253 -482 l41 -117 23 72 c59 185 153 372 261 517 33 45 146 170 251 278 219
227 290 316 354 446 42 84 88 247 74 261 -3 3 -32 -20 -65 -50 -90 -85 -180
-149 -276 -200 -49 -24 -88 -42 -88 -39 0 3 11 28 25 55 14 27 32 78 40 112
16 67 20 188 7 188 -4 0 -26 -18 -47 -41 -22 -23 -116 -92 -210 -153 -236
-157 -296 -219 -328 -346 l-15 -55 -11 40 c-17 61 -68 144 -123 197 -27 26
-126 99 -221 162 -95 63 -190 133 -212 155 -21 23 -43 41 -47 41 -4 0 -8 -28
-8 -62z"/>
<path d="M12220 15885 c-8 -2 -49 -9 -90 -15 -41 -7 -118 -26 -170 -44 l-95
-31 270 -6 c149 -4 313 -12 365 -18 210 -25 447 -76 661 -142 53 -16 99 -29
103 -29 16 0 -8 21 -72 63 -132 87 -290 153 -462 194 -89 21 -136 25 -300 28
-107 2 -202 2 -210 0z"/>
<path d="M13320 13579 c-382 -367 -665 -612 -985 -850 -397 -295 -846 -571
-1322 -812 -67 -34 -120 -63 -119 -65 2 -1 57 15 122 36 767 253 1570 790
2125 1422 101 116 299 370 287 370 -2 0 -51 -45 -108 -101z"/>
<path d="M3646 12301 c-55 -123 -70 -202 -70 -376 -1 -144 2 -170 26 -257 61
-219 173 -395 340 -534 191 -160 446 -268 832 -353 48 -11 84 -16 80 -11 -5 4
-92 45 -194 90 -311 138 -426 200 -555 296 -266 198 -424 478 -455 804 -10
102 -1 251 20 345 6 26 9 49 7 52 -2 2 -16 -23 -31 -56z"/>
<path d="M3964 12110 c-30 -88 -26 -279 9 -385 37 -112 90 -197 177 -286 79
-80 168 -136 256 -162 l52 -15 -99 99 c-200 202 -311 418 -358 699 l-18 105
-19 -55z"/>
</g>
</svg>
